<svg xmlns="http://www.w3.org/2000/svg" xmlns:xlink="http://www.w3.org/1999/xlink" width="512" zoomAndPan="magnify" viewBox="0 0 384 383.999986" height="512" preserveAspectRatio="xMidYMid meet" version="1.0"><defs><clipPath id="6af0761e9e"><path d="M 38.398438 38.398438 L 345.898438 38.398438 L 345.898438 345.898438 L 38.398438 345.898438 Z M 38.398438 38.398438 " clip-rule="nonzero"/></clipPath></defs><path fill="#000000" d="M 110.085938 149.921875 L 132.832031 149.921875 C 133.117188 149.921875 133.402344 149.949219 133.683594 150.007812 C 133.960938 150.0625 134.234375 150.144531 134.5 150.253906 C 134.765625 150.363281 135.015625 150.5 135.253906 150.65625 C 135.492188 150.816406 135.710938 150.996094 135.914062 151.199219 C 136.117188 151.402344 136.296875 151.621094 136.457031 151.859375 C 136.617188 152.097656 136.75 152.351562 136.859375 152.613281 C 136.96875 152.878906 137.054688 153.152344 137.109375 153.433594 C 137.164062 153.714844 137.191406 153.996094 137.191406 154.285156 L 137.191406 279.382812 C 137.191406 279.671875 137.164062 279.953125 137.109375 280.234375 C 137.054688 280.515625 136.96875 280.789062 136.859375 281.054688 C 136.75 281.316406 136.617188 281.570312 136.457031 281.808594 C 136.296875 282.046875 136.117188 282.265625 135.914062 282.46875 C 135.710938 282.671875 135.492188 282.851562 135.253906 283.011719 C 135.015625 283.167969 134.765625 283.304688 134.5 283.414062 C 134.234375 283.523438 133.960938 283.605469 133.683594 283.660156 C 133.402344 283.71875 133.117188 283.746094 132.832031 283.746094 L 110.085938 283.746094 C 109.800781 283.746094 109.515625 283.71875 109.234375 283.660156 C 108.953125 283.605469 108.683594 283.523438 108.417969 283.414062 C 108.152344 283.304688 107.902344 283.167969 107.664062 283.011719 C 107.425781 282.851562 107.203125 282.671875 107.003906 282.46875 C 106.800781 282.265625 106.621094 282.046875 106.460938 281.808594 C 106.300781 281.570312 106.167969 281.316406 106.058594 281.054688 C 105.949219 280.789062 105.863281 280.515625 105.808594 280.234375 C 105.753906 279.953125 105.726562 279.671875 105.726562 279.382812 L 105.726562 154.285156 C 105.726562 153.996094 105.753906 153.714844 105.808594 153.433594 C 105.863281 153.152344 105.949219 152.878906 106.058594 152.613281 C 106.167969 152.351562 106.300781 152.097656 106.460938 151.859375 C 106.621094 151.621094 106.800781 151.402344 107.003906 151.199219 C 107.203125 150.996094 107.425781 150.816406 107.664062 150.65625 C 107.902344 150.5 108.152344 150.363281 108.417969 150.253906 C 108.683594 150.144531 108.953125 150.0625 109.234375 150.007812 C 109.515625 149.949219 109.800781 149.921875 110.085938 149.921875 Z M 110.085938 149.921875 " fill-opacity="1" fill-rule="nonzero"/><path fill="#000000" d="M 139.777344 119.058594 C 139.742188 108.332031 132.050781 100.554688 121.460938 100.554688 C 110.871094 100.554688 102.882812 108.539062 102.882812 119.132812 C 102.882812 124.0625 104.679688 128.644531 107.941406 132.042969 C 111.296875 135.53125 115.914062 137.453125 120.941406 137.453125 C 126.515625 137.453125 131.488281 135.488281 134.949219 131.902344 C 138.195312 128.546875 139.90625 124.019531 139.78125 119.132812 C 139.78125 119.109375 139.777344 119.089844 139.777344 119.058594 Z M 139.777344 119.058594 " fill-opacity="1" fill-rule="nonzero"/><path fill="#000000" d="M 264.359375 158.722656 C 253.035156 148.59375 239.761719 147.078125 232.859375 147.078125 C 222.542969 147.078125 212.714844 149.835938 204.429688 155.050781 C 200.808594 157.332031 197.535156 160.035156 194.613281 163.160156 L 194.042969 154.003906 C 194.007812 153.449219 193.871094 152.917969 193.636719 152.417969 C 193.398438 151.914062 193.078125 151.472656 192.671875 151.09375 C 192.269531 150.714844 191.804688 150.421875 191.289062 150.21875 C 190.773438 150.015625 190.238281 149.914062 189.679688 149.914062 L 169.53125 149.914062 C 169.230469 149.914062 168.933594 149.945312 168.640625 150.003906 C 168.347656 150.066406 168.0625 150.15625 167.789062 150.277344 C 167.511719 150.398438 167.253906 150.542969 167.007812 150.71875 C 166.761719 150.890625 166.539062 151.089844 166.335938 151.308594 C 166.132812 151.527344 165.953125 151.769531 165.796875 152.023438 C 165.640625 152.28125 165.515625 152.550781 165.414062 152.835938 C 165.316406 153.117188 165.246094 153.410156 165.207031 153.707031 C 165.167969 154.003906 165.160156 154.304688 165.183594 154.601562 C 165.898438 164.148438 166.203125 174.179688 166.203125 188.136719 L 166.203125 279.382812 C 166.203125 279.671875 166.230469 279.953125 166.289062 280.234375 C 166.34375 280.515625 166.425781 280.789062 166.535156 281.054688 C 166.644531 281.316406 166.78125 281.570312 166.941406 281.808594 C 167.097656 282.046875 167.28125 282.265625 167.480469 282.46875 C 167.683594 282.671875 167.90625 282.851562 168.144531 283.011719 C 168.382812 283.167969 168.632812 283.304688 168.898438 283.414062 C 169.160156 283.523438 169.433594 283.605469 169.714844 283.660156 C 169.996094 283.71875 170.28125 283.746094 170.566406 283.746094 L 193.3125 283.746094 C 193.597656 283.746094 193.882812 283.71875 194.164062 283.660156 C 194.445312 283.605469 194.71875 283.523438 194.980469 283.414062 C 195.246094 283.304688 195.496094 283.167969 195.734375 283.011719 C 195.972656 282.851562 196.195312 282.671875 196.398438 282.46875 C 196.597656 282.265625 196.78125 282.046875 196.9375 281.808594 C 197.097656 281.570312 197.234375 281.316406 197.34375 281.054688 C 197.453125 280.789062 197.535156 280.515625 197.589844 280.234375 C 197.644531 279.953125 197.675781 279.671875 197.675781 279.382812 L 197.675781 204.167969 C 197.675781 200.632812 198.144531 197.3125 198.964844 195.0625 C 198.988281 194.992188 199.011719 194.917969 199.03125 194.84375 C 202.109375 184.8125 211.441406 174.667969 225.363281 174.667969 C 233.980469 174.667969 240.164062 177.613281 244.273438 183.671875 C 247.980469 189.152344 249.941406 197.3125 249.941406 207.265625 L 249.941406 279.382812 C 249.941406 279.671875 249.96875 279.953125 250.027344 280.234375 C 250.082031 280.515625 250.164062 280.789062 250.273438 281.054688 C 250.382812 281.316406 250.519531 281.570312 250.675781 281.808594 C 250.835938 282.046875 251.015625 282.265625 251.21875 282.46875 C 251.421875 282.671875 251.644531 282.851562 251.882812 283.011719 C 252.117188 283.167969 252.371094 283.304688 252.636719 283.414062 C 252.898438 283.523438 253.171875 283.605469 253.453125 283.660156 C 253.734375 283.71875 254.019531 283.746094 254.304688 283.746094 L 277.050781 283.746094 C 277.335938 283.746094 277.621094 283.71875 277.902344 283.660156 C 278.183594 283.605469 278.453125 283.523438 278.71875 283.414062 C 278.984375 283.304688 279.234375 283.167969 279.472656 283.011719 C 279.710938 282.851562 279.933594 282.671875 280.132812 282.46875 C 280.335938 282.265625 280.519531 282.046875 280.675781 281.808594 C 280.835938 281.570312 280.96875 281.316406 281.082031 281.054688 C 281.191406 280.789062 281.273438 280.515625 281.328125 280.234375 C 281.382812 279.953125 281.414062 279.671875 281.414062 279.382812 L 281.414062 204.683594 C 281.414062 194.042969 279.804688 184.609375 276.632812 176.652344 C 273.785156 169.492188 269.652344 163.457031 264.359375 158.722656 Z M 264.359375 158.722656 " fill-opacity="1" fill-rule="nonzero"/><g clip-path="url(#6af0761e9e)"><path fill="#000000" d="M 305.867188 38.398438 L 78.433594 38.398438 C 56.355469 38.398438 38.398438 56.359375 38.398438 78.433594 L 38.398438 305.867188 C 38.398438 327.941406 56.355469 345.898438 78.433594 345.898438 L 305.867188 345.898438 C 327.941406 345.898438 345.898438 327.941406 345.898438 305.867188 L 345.898438 78.433594 C 345.898438 56.359375 327.941406 38.398438 305.867188 38.398438 Z M 317.789062 80.371094 L 317.789062 303.929688 C 317.789062 304.839844 317.699219 305.742188 317.523438 306.632812 C 317.34375 307.523438 317.082031 308.390625 316.730469 309.230469 C 316.382812 310.070312 315.957031 310.871094 315.449219 311.625 C 314.945312 312.382812 314.371094 313.082031 313.726562 313.726562 C 313.082031 314.371094 312.382812 314.945312 311.625 315.449219 C 310.871094 315.957031 310.070312 316.382812 309.230469 316.730469 C 308.390625 317.082031 307.523438 317.34375 306.632812 317.523438 C 305.742188 317.699219 304.839844 317.789062 303.929688 317.789062 L 80.371094 317.789062 C 79.460938 317.789062 78.558594 317.699219 77.667969 317.523438 C 76.773438 317.34375 75.910156 317.082031 75.066406 316.730469 C 74.226562 316.382812 73.429688 315.957031 72.671875 315.449219 C 71.917969 314.945312 71.214844 314.371094 70.574219 313.726562 C 69.929688 313.082031 69.355469 312.382812 68.851562 311.625 C 68.34375 310.871094 67.917969 310.070312 67.566406 309.230469 C 67.21875 308.390625 66.957031 307.523438 66.777344 306.632812 C 66.597656 305.742188 66.511719 304.839844 66.507812 303.929688 L 66.507812 80.371094 C 66.511719 79.460938 66.601562 78.558594 66.777344 77.667969 C 66.957031 76.773438 67.21875 75.910156 67.566406 75.066406 C 67.917969 74.226562 68.34375 73.429688 68.851562 72.671875 C 69.355469 71.917969 69.929688 71.214844 70.574219 70.574219 C 71.214844 69.929688 71.917969 69.355469 72.671875 68.851562 C 73.429688 68.34375 74.226562 67.917969 75.066406 67.566406 C 75.910156 67.21875 76.773438 66.957031 77.667969 66.777344 C 78.558594 66.597656 79.460938 66.511719 80.371094 66.507812 L 303.929688 66.507812 C 304.839844 66.511719 305.742188 66.597656 306.632812 66.777344 C 307.523438 66.957031 308.390625 67.21875 309.230469 67.566406 C 310.070312 67.917969 310.871094 68.34375 311.625 68.851562 C 312.382812 69.355469 313.082031 69.929688 313.726562 70.574219 C 314.371094 71.214844 314.945312 71.917969 315.449219 72.671875 C 315.957031 73.429688 316.382812 74.226562 316.730469 75.066406 C 317.082031 75.910156 317.34375 76.773438 317.523438 77.667969 C 317.699219 78.558594 317.789062 79.460938 317.789062 80.371094 Z M 317.789062 80.371094 " fill-opacity="1" fill-rule="nonzero"/></g></svg>