<svg xmlns="http://www.w3.org/2000/svg" xmlns:xlink="http://www.w3.org/1999/xlink" width="512" zoomAndPan="magnify" viewBox="0 0 384 383.999986" height="512" preserveAspectRatio="xMidYMid meet" version="1.0"><defs><clipPath id="bc2d721a71"><path d="M 38.398438 38.398438 L 345.898438 38.398438 L 345.898438 345.898438 L 38.398438 345.898438 Z M 38.398438 38.398438 " clip-rule="nonzero"/></clipPath></defs><path fill="#d9d9d9" d="M 110.015625 149.8125 L 132.738281 149.8125 C 133.023438 149.8125 133.308594 149.839844 133.585938 149.894531 C 133.867188 149.949219 134.140625 150.035156 134.40625 150.144531 C 134.667969 150.253906 134.921875 150.386719 135.15625 150.546875 C 135.394531 150.703125 135.617188 150.886719 135.820312 151.085938 C 136.019531 151.289062 136.203125 151.511719 136.359375 151.75 C 136.519531 151.984375 136.652344 152.238281 136.761719 152.5 C 136.871094 152.765625 136.957031 153.039062 137.011719 153.320312 C 137.066406 153.597656 137.09375 153.882812 137.09375 154.167969 L 137.09375 279.144531 C 137.09375 279.429688 137.066406 279.714844 137.011719 279.996094 C 136.957031 280.277344 136.871094 280.546875 136.761719 280.8125 C 136.652344 281.078125 136.519531 281.328125 136.359375 281.566406 C 136.203125 281.804688 136.019531 282.023438 135.820312 282.226562 C 135.617188 282.429688 135.394531 282.609375 135.15625 282.769531 C 134.921875 282.925781 134.667969 283.0625 134.40625 283.171875 C 134.140625 283.28125 133.867188 283.363281 133.585938 283.417969 C 133.308594 283.476562 133.023438 283.503906 132.738281 283.503906 L 110.015625 283.503906 C 109.730469 283.503906 109.445312 283.476562 109.164062 283.417969 C 108.886719 283.363281 108.613281 283.28125 108.347656 283.171875 C 108.082031 283.0625 107.832031 282.925781 107.59375 282.769531 C 107.355469 282.609375 107.136719 282.429688 106.933594 282.226562 C 106.730469 282.023438 106.550781 281.804688 106.394531 281.566406 C 106.234375 281.328125 106.097656 281.078125 105.988281 280.8125 C 105.878906 280.546875 105.796875 280.277344 105.742188 279.996094 C 105.6875 279.714844 105.660156 279.429688 105.660156 279.144531 L 105.660156 154.167969 C 105.660156 153.882812 105.6875 153.597656 105.742188 153.320312 C 105.796875 153.039062 105.878906 152.765625 105.988281 152.5 C 106.097656 152.238281 106.234375 151.984375 106.394531 151.75 C 106.550781 151.511719 106.730469 151.289062 106.933594 151.085938 C 107.136719 150.886719 107.355469 150.703125 107.59375 150.546875 C 107.832031 150.386719 108.082031 150.253906 108.347656 150.144531 C 108.613281 150.035156 108.886719 149.949219 109.164062 149.894531 C 109.445312 149.839844 109.730469 149.8125 110.015625 149.8125 Z M 110.015625 149.8125 " fill-opacity="1" fill-rule="nonzero"/><path fill="#d9d9d9" d="M 139.679688 118.980469 C 139.644531 108.265625 131.957031 100.492188 121.378906 100.492188 C 110.796875 100.492188 102.816406 108.472656 102.816406 119.054688 C 102.816406 123.976562 104.613281 128.554688 107.875 131.949219 C 111.226562 135.433594 115.835938 137.355469 120.859375 137.355469 C 126.429688 137.355469 131.398438 135.394531 134.855469 131.808594 C 138.09375 128.457031 139.804688 123.933594 139.679688 119.054688 C 139.679688 119.027344 139.679688 119.011719 139.679688 118.980469 Z M 139.679688 118.980469 " fill-opacity="1" fill-rule="nonzero"/><path fill="#d9d9d9" d="M 264.136719 158.601562 C 252.824219 148.484375 239.5625 146.96875 232.664062 146.96875 C 222.359375 146.96875 212.539062 149.722656 204.261719 154.9375 C 200.644531 157.214844 197.378906 159.914062 194.460938 163.039062 L 193.890625 153.886719 C 193.855469 153.335938 193.71875 152.804688 193.480469 152.304688 C 193.246094 151.800781 192.925781 151.359375 192.519531 150.980469 C 192.113281 150.601562 191.65625 150.308594 191.136719 150.105469 C 190.621094 149.902344 190.085938 149.800781 189.53125 149.804688 L 169.402344 149.804688 C 169.101562 149.804688 168.804688 149.832031 168.511719 149.894531 C 168.21875 149.957031 167.933594 150.046875 167.660156 150.167969 C 167.386719 150.285156 167.125 150.433594 166.882812 150.605469 C 166.636719 150.78125 166.414062 150.976562 166.207031 151.195312 C 166.003906 151.417969 165.824219 151.65625 165.671875 151.914062 C 165.515625 152.167969 165.390625 152.4375 165.289062 152.722656 C 165.191406 153.003906 165.121094 153.296875 165.082031 153.59375 C 165.042969 153.890625 165.035156 154.1875 165.058594 154.488281 C 165.773438 164.023438 166.078125 174.046875 166.078125 187.988281 L 166.078125 279.144531 C 166.078125 279.429688 166.105469 279.714844 166.160156 279.996094 C 166.21875 280.277344 166.300781 280.546875 166.410156 280.8125 C 166.519531 281.078125 166.652344 281.328125 166.8125 281.566406 C 166.972656 281.804688 167.152344 282.023438 167.355469 282.226562 C 167.554688 282.429688 167.777344 282.609375 168.015625 282.769531 C 168.253906 282.925781 168.503906 283.0625 168.769531 283.171875 C 169.03125 283.28125 169.304688 283.363281 169.585938 283.417969 C 169.867188 283.476562 170.148438 283.503906 170.433594 283.503906 L 193.160156 283.503906 C 193.445312 283.503906 193.726562 283.476562 194.007812 283.417969 C 194.289062 283.363281 194.5625 283.28125 194.828125 283.171875 C 195.089844 283.0625 195.34375 282.925781 195.578125 282.769531 C 195.816406 282.609375 196.039062 282.429688 196.238281 282.226562 C 196.441406 282.023438 196.621094 281.804688 196.78125 281.566406 C 196.941406 281.328125 197.074219 281.078125 197.183594 280.8125 C 197.292969 280.546875 197.375 280.277344 197.433594 279.996094 C 197.488281 279.714844 197.515625 279.429688 197.515625 279.144531 L 197.515625 204.003906 C 197.515625 200.472656 197.984375 197.15625 198.804688 194.90625 C 198.828125 194.835938 198.851562 194.765625 198.875 194.6875 C 201.945312 184.667969 211.269531 174.53125 225.175781 174.53125 C 233.785156 174.53125 239.964844 177.472656 244.066406 183.527344 C 247.773438 189 249.734375 197.15625 249.734375 207.097656 L 249.734375 279.144531 C 249.734375 279.429688 249.761719 279.714844 249.816406 279.996094 C 249.871094 280.277344 249.957031 280.546875 250.066406 280.8125 C 250.175781 281.078125 250.308594 281.328125 250.46875 281.566406 C 250.625 281.804688 250.808594 282.023438 251.007812 282.226562 C 251.210938 282.429688 251.429688 282.609375 251.667969 282.769531 C 251.90625 282.925781 252.160156 283.0625 252.421875 283.171875 C 252.6875 283.28125 252.960938 283.363281 253.238281 283.417969 C 253.519531 283.476562 253.804688 283.503906 254.089844 283.503906 L 276.8125 283.503906 C 277.101562 283.503906 277.382812 283.476562 277.664062 283.417969 C 277.945312 283.363281 278.21875 283.28125 278.480469 283.171875 C 278.746094 283.0625 278.996094 282.925781 279.234375 282.769531 C 279.472656 282.609375 279.691406 282.429688 279.894531 282.226562 C 280.097656 282.023438 280.277344 281.804688 280.4375 281.566406 C 280.597656 281.328125 280.730469 281.078125 280.839844 280.8125 C 280.949219 280.546875 281.03125 280.277344 281.085938 279.996094 C 281.144531 279.714844 281.171875 279.429688 281.171875 279.144531 L 281.171875 204.519531 C 281.171875 193.890625 279.5625 184.464844 276.394531 176.511719 C 273.550781 169.359375 269.425781 163.335938 264.136719 158.601562 Z M 264.136719 158.601562 " fill-opacity="1" fill-rule="nonzero"/><g clip-path="url(#bc2d721a71)"><path fill="#d9d9d9" d="M 305.601562 38.398438 L 78.390625 38.398438 C 56.339844 38.398438 38.398438 56.339844 38.398438 78.390625 L 38.398438 305.601562 C 38.398438 327.652344 56.339844 345.59375 78.390625 345.59375 L 305.601562 345.59375 C 327.652344 345.59375 345.59375 327.652344 345.59375 305.601562 L 345.59375 78.390625 C 345.59375 56.339844 327.652344 38.398438 305.601562 38.398438 Z M 317.515625 80.328125 L 317.515625 303.667969 C 317.511719 304.574219 317.421875 305.476562 317.246094 306.367188 C 317.066406 307.257812 316.804688 308.125 316.457031 308.964844 C 316.109375 309.804688 315.679688 310.601562 315.175781 311.355469 C 314.671875 312.113281 314.097656 312.8125 313.453125 313.453125 C 312.8125 314.097656 312.113281 314.671875 311.355469 315.175781 C 310.601562 315.679688 309.804688 316.109375 308.964844 316.457031 C 308.125 316.804688 307.257812 317.066406 306.367188 317.246094 C 305.476562 317.421875 304.574219 317.511719 303.667969 317.515625 L 80.328125 317.515625 C 79.417969 317.511719 78.519531 317.421875 77.628906 317.246094 C 76.738281 317.066406 75.871094 316.804688 75.03125 316.457031 C 74.191406 316.109375 73.394531 315.679688 72.640625 315.175781 C 71.882812 314.671875 71.183594 314.097656 70.542969 313.453125 C 69.898438 312.8125 69.324219 312.113281 68.820312 311.355469 C 68.3125 310.601562 67.886719 309.804688 67.539062 308.964844 C 67.191406 308.125 66.929688 307.257812 66.75 306.367188 C 66.570312 305.476562 66.480469 304.574219 66.480469 303.667969 L 66.480469 80.328125 C 66.480469 79.417969 66.570312 78.519531 66.75 77.628906 C 66.929688 76.738281 67.191406 75.871094 67.539062 75.03125 C 67.886719 74.191406 68.3125 73.394531 68.820312 72.640625 C 69.324219 71.882812 69.898438 71.183594 70.542969 70.542969 C 71.183594 69.898438 71.882812 69.324219 72.640625 68.820312 C 73.394531 68.3125 74.191406 67.886719 75.03125 67.539062 C 75.871094 67.191406 76.738281 66.929688 77.628906 66.75 C 78.519531 66.570312 79.417969 66.480469 80.328125 66.480469 L 303.667969 66.480469 C 304.574219 66.480469 305.476562 66.570312 306.367188 66.75 C 307.257812 66.929688 308.125 67.191406 308.964844 67.539062 C 309.804688 67.886719 310.601562 68.3125 311.355469 68.820312 C 312.113281 69.324219 312.8125 69.898438 313.453125 70.542969 C 314.097656 71.183594 314.671875 71.882812 315.175781 72.640625 C 315.679688 73.394531 316.109375 74.191406 316.457031 75.03125 C 316.804688 75.871094 317.066406 76.738281 317.246094 77.628906 C 317.421875 78.519531 317.511719 79.417969 317.515625 80.328125 Z M 317.515625 80.328125 " fill-opacity="1" fill-rule="nonzero"/></g></svg>